<svg width="25" height="24" viewBox="0 0 25 24" fill="none" xmlns="http://www.w3.org/2000/svg">
<path d="M12.6562 2C7.15625 2 2.65625 6.5 2.65625 12C2.65625 17.5 7.15625 22 12.6562 22C18.1562 22 22.6562 17.5 22.6562 12C22.6562 6.5 18.1562 2 12.6562 2ZM12.6562 20C8.24625 20 4.65625 16.41 4.65625 12C4.65625 7.59 8.24625 4 12.6562 4C17.0662 4 20.6562 7.59 20.6562 12C20.6562 16.41 17.0662 20 12.6562 20ZM17.2463 7.58L10.6562 14.17L8.06625 11.59L6.65625 13L10.6562 17L18.6562 9L17.2463 7.58Z" fill="#197E10"/>
</svg>
